<?xml version="1.0" standalone="no"?>
<!DOCTYPE svg PUBLIC "-//W3C//DTD SVG 20010904//EN"
 "http://www.w3.org/TR/2001/REC-SVG-20010904/DTD/svg10.dtd">
<svg version="1.0" xmlns="http://www.w3.org/2000/svg"
 width="1024.000000pt" height="1024.000000pt" viewBox="0 0 1024.000000 1024.000000"
 preserveAspectRatio="xMidYMid meet">
<metadata>
Created by potrace 1.16, written by Peter Selinger 2001-2019
</metadata>
<g transform="translate(0.000000,1024.000000) scale(0.100000,-0.100000)"
fill="#000000" stroke="none">
<path d="M5730 8753 c-8 -3 -31 -20 -50 -38 -19 -17 -66 -47 -105 -66 -38 -19
-72 -36 -75 -39 -3 -3 -11 -6 -18 -8 -12 -2 -199 -147 -229 -178 -8 -8 -18
-14 -22 -14 -4 0 -28 -20 -53 -45 -26 -25 -49 -45 -52 -45 -10 0 -53 -40 -272
-257 -121 -120 -229 -231 -240 -248 -10 -16 -31 -41 -46 -53 -16 -13 -28 -28
-28 -33 0 -5 -18 -29 -40 -51 -22 -23 -40 -46 -40 -51 0 -5 -20 -30 -44 -56
-25 -25 -63 -71 -85 -101 -22 -30 -44 -59 -48 -65 -5 -5 -19 -26 -33 -45 -13
-19 -47 -62 -76 -95 -28 -33 -94 -118 -146 -190 -52 -71 -119 -161 -148 -200
-57 -76 -284 -417 -371 -558 -86 -139 -115 -191 -209 -372 -225 -432 -316
-766 -327 -1198 -7 -245 4 -360 53 -559 83 -338 244 -674 434 -903 80 -97 247
-245 276 -245 15 0 37 15 60 40 20 22 43 40 51 40 9 0 11 5 7 13 -6 9 -5 9 8
0 26 -22 79 -150 85 -208 5 -49 11 -59 49 -95 40 -37 211 -126 222 -116 4 5
-38 116 -98 261 -16 39 -43 124 -61 190 -29 109 -32 138 -36 307 -4 120 -1
217 7 270 17 116 63 287 104 388 39 96 114 240 125 240 4 0 20 27 36 60 16 33
34 60 41 60 7 0 27 25 44 55 17 30 34 54 38 53 4 -1 37 28 75 64 113 113 193
170 774 548 213 140 249 167 358 275 225 223 310 331 389 490 67 137 87 197
120 355 37 182 49 334 36 450 -27 235 -65 391 -95 394 -5 1 -11 -12 -12 -29
-23 -301 -41 -440 -77 -585 -93 -371 -305 -669 -672 -944 -106 -79 -400 -272
-644 -423 -205 -128 -428 -314 -548 -458 -150 -179 -239 -334 -302 -524 -97
-290 -105 -572 -24 -890 22 -89 23 -95 6 -107 -15 -12 -22 -14 -37 -14 -3 0
-18 -6 -33 -13 -31 -16 -91 -20 -110 -9 -14 10 -67 152 -119 322 -56 183 -56
294 -2 595 24 135 94 334 157 450 26 48 62 116 79 151 18 35 37 64 41 64 5 0
21 17 34 38 14 20 38 52 54 71 47 55 226 231 264 259 19 15 67 52 105 83 78
63 286 202 690 463 359 233 689 612 790 911 49 144 66 257 72 455 7 239 -7
415 -51 682 -72 431 -70 713 5 937 16 47 29 89 29 94 0 8 -17 8 -40 0z m-333
-1109 c18 -48 -58 -514 -79 -482 -5 8 -6 3 -2 -15 9 -38 -46 -193 -118 -336
-53 -103 -158 -263 -221 -334 -93 -105 -242 -247 -259 -247 -5 0 5 12 24 27
64 52 227 226 221 236 -3 6 -1 7 5 3 7 -4 22 9 37 31 48 73 59 88 77 109 11
12 20 31 21 43 1 11 7 21 13 21 7 0 14 7 18 15 3 9 0 15 -9 15 -8 0 -15 7 -15
15 0 18 12 19 28 3 8 -8 14 -4 23 18 17 42 21 107 6 117 -9 7 -9 10 1 14 6 2
12 11 12 19 0 8 4 23 10 34 24 47 27 58 29 107 2 45 8 58 38 88 19 19 41 35
48 35 8 0 17 9 20 20 8 25 -3 80 -16 80 -5 0 -9 9 -9 20 0 11 5 20 10 20 6 0
10 12 10 26 0 16 -4 23 -11 18 -8 -5 -8 -1 0 14 6 11 11 30 11 41 0 12 5 21
10 21 15 0 12 38 -2 43 -17 5 3 63 20 60 8 -2 12 16 12 57 0 47 3 60 15 60 9
0 18 -7 22 -16z"/>
<path d="M6380 7002 c11 -29 32 -110 46 -180 22 -108 25 -143 21 -237 -9 -178
-45 -422 -72 -485 -13 -30 -31 -82 -40 -115 -39 -135 -145 -311 -287 -475 -60
-69 -114 -130 -121 -135 -6 -6 -53 -46 -103 -90 -49 -44 -115 -96 -145 -116
-151 -100 -261 -170 -326 -207 -187 -108 -226 -132 -344 -214 -177 -122 -251
-184 -347 -291 -141 -155 -252 -336 -306 -497 -59 -181 -80 -504 -42 -693 45
-230 151 -437 320 -621 87 -96 124 -120 223 -140 436 -91 995 14 1427 268 219
129 485 363 625 551 219 292 303 464 390 795 59 228 74 360 68 620 -4 190 -8
233 -36 365 -17 83 -49 209 -70 280 -42 137 -124 349 -132 341 -3 -3 -6 5 -6
17 -6 69 -410 811 -553 1014 -36 50 -85 123 -109 162 -25 39 -57 86 -73 104
l-28 32 20 -53z m473 -749 c6 1 11 -5 12 -13 1 -28 47 -160 55 -160 5 0 12 -9
15 -20 4 -12 16 -30 28 -42 12 -11 16 -18 10 -14 -9 5 -13 -1 -13 -21 0 -22 2
-25 10 -13 8 13 10 12 11 -5 4 -69 8 -88 23 -104 13 -15 14 -20 4 -23 -11 -4
-11 -11 -1 -38 9 -24 10 -36 2 -41 -6 -3 -11 -22 -11 -42 0 -22 -7 -42 -19
-53 -10 -9 -19 -28 -19 -41 0 -16 -6 -23 -20 -23 -17 0 -20 -7 -20 -40 0 -33
-3 -40 -20 -40 -13 0 -20 7 -20 20 0 11 -7 20 -15 20 -8 0 -15 -7 -15 -15 0
-24 -20 -60 -42 -74 -11 -7 -17 -8 -13 -2 3 6 2 11 -3 11 -6 0 -13 -8 -16 -17
-6 -15 -8 -15 -16 -3 -8 13 -10 13 -10 -1 0 -9 -11 -24 -24 -32 l-24 -16 9 40
c5 21 22 78 38 127 47 141 63 270 60 482 -1 102 -6 193 -11 203 -15 30 2 39
23 13 11 -14 25 -25 32 -23z"/>
<path d="M4984 1608 c-97 -12 -123 -18 -138 -33 -19 -19 -9 -54 18 -60 11 -2
32 -6 46 -9 14 -2 43 -9 65 -15 78 -21 282 -25 384 -6 133 23 178 50 137 84
-37 31 -370 56 -512 39z"/>
</g>
</svg>
